<?xml version="1.0" encoding="UTF-8" standalone="no"?>
<svg xmlns="http://www.w3.org/2000/svg" xmlns:xlink="http://www.w3.org/1999/xlink" xml:space="preserve" width="480" height="480">
  <defs>
    <linearGradient id="a" x1="-16.232901" x2="-2.7558999" y1="773.02228" y2="793.52838" gradientTransform="matrix(1.0672 0 0 .9893 43.9623 -740.975)" gradientUnits="userSpaceOnUse">
      <stop offset="0" stop-color="#f0eff1"/>
      <stop offset=".5993" stop-color="#e8e6ea"/>
      <stop offset=".8276" stop-color="#fff"/>
      <stop offset="1" stop-color="#d6d3da"/>
    </linearGradient>
    <linearGradient xlink:href="#a" id="e" x1="-16.232901" x2="-2.7558999" y1="773.02228" y2="793.52838" gradientTransform="matrix(1.0672 0 0 .9893 17.071899 -747.43313)" gradientUnits="userSpaceOnUse"/>
    <linearGradient id="g" x1="-533.09619" x2="-532.3222" y1="36.920799" y2="38.069801" gradientTransform="translate(109.87325 37.097125)" gradientUnits="userSpaceOnUse">
      <stop offset="0" stop-color="#fff"/>
      <stop offset="1" stop-color="#fff"/>
    </linearGradient>
    <linearGradient id="b" x1="34.8554" x2="32.524101" y1="785.15222" y2="782.46503" gradientTransform="translate(77.57272 -755.65983)" gradientUnits="userSpaceOnUse">
      <stop offset="0" stop-color="#7a7187"/>
      <stop offset="1" stop-color="#b7b2be"/>
    </linearGradient>
    <linearGradient xlink:href="#b" id="f" x1="34.8554" x2="32.524101" y1="785.15222" y2="782.46503" gradientTransform="translate(117.52705 -703.86971)" gradientUnits="userSpaceOnUse"/>
  </defs>
  <g transform="translate(0 432)">
    <g transform="matrix(-9.17961 -1.35633 1.34963 -8.98203 438.2247 -34.731169)">
      <path d="M20.162001 34.032001h13v2.0009999h-13z" opacity=".17049997"/>
      <linearGradient id="c" x1="-15.0664" x2="-1.5897" y1="773.1571" y2="793.66278" gradientTransform="matrix(1.0689 0 0 .9888 29.7682 -749.6867)" gradientUnits="userSpaceOnUse">
        <stop offset="0" stop-color="#f0eff1"/>
        <stop offset=".5993" stop-color="#e8e6ea"/>
        <stop offset=".8276" stop-color="#fff"/>
        <stop offset="1" stop-color="#d6d3da"/>
      </linearGradient>
      <path fill="url(#c)" stroke="#8b7d95" stroke-width=".9989" d="M2.114 1.563h29.819c.312 0 .567.253.567.566v34.845c0 .312-.254.566-.567.566H2.114c-.313 0-.566-.254-.566-.566V2.129c.001-.313.254-.566.566-.566z"/>
      <linearGradient id="d" x1="-537.62701" x2="-532.89191" y1="26.921499" y2="42.232101" gradientTransform="translate(0 .0000114)" gradientUnits="userSpaceOnUse">
        <stop offset="0" stop-color="#fff"/>
        <stop offset="1" stop-color="#fff"/>
      </linearGradient>
      <path fill="none" stroke="url(#d)" stroke-width=".9989" d="M2.533 2.5610001h28.971001v33.981998H2.533z"/>
      <path fill="#ada7b7" d="M7.0159998 10.033h21v2h-21zm0 4h20v2h-20zm0 4.000001h18v2h-18zm0 4h21v2h-21zm0 4h13v2.0009999h-13z"/>
    </g>
    <g transform="matrix(-9.08773 1.77171 -1.80868 -8.902 235.68515 6.0151547)">
      <path fill="url(#e)" stroke="#8b7d95" d="M-11.817401 4.0428692h29.857c.315 0 .57.253.57.567V31.777869c0 2.477-6.881 8.303-9.2700003 8.303H-11.817401c-.315 0-.57-.254-.57-.568V4.6098692c0-.314.254-.567.57-.567z"/>
      <path fill="none" stroke="#fff" stroke-miterlimit=".40000001" stroke-width="1.00002289" d="m-11.196392 4.8642499 28.373327.084572c.297518-.0001212.538313.2390853.538251.5359528l-.0053 25.6856743C17.7094 33.5123 11.2092 39.021773 8.9528038 39.02224l-20.1521368.305626c-.297515.000122-.423152.0064-.423091-.290474l.152045-34.0034424c.000089-.2968678.265082-.1120524.563542-.1121154z"/>
    </g>
    <g transform="matrix(-9.08773 1.77171 -1.80868 -8.902 1558.9675 151.28807)">
      <path fill="url(#f)" stroke="#8b7d95" d="M146.09425 83.634124c2.031.33 9.59-4.53 9.285-8.498-1.564 2.424-4.759 1.287-8.867 1.445 0 0 .394 6.553-.418 7.053z"/>
      <path fill="none" stroke="url(#g)" d="M147.54525 81.443124c1.369-.684 4.428-2.146 5.727-4.026-1.596.68-2.946.209-5.7.188-.002-.000005.16 3.062-.027 3.838z" opacity=".36930003"/>
      <path fill="#ada7b7" d="M129.87326 56.130123h21v2h-21zm0 4h19.992v2h-19.992zm0 4.000004h17.977v2h-17.977zm0 4h21v2h-21z"/>
      <path fill="none" d="m140.89167592 83.70192598-9.00293561-1.7918018.24603064-1.23618473 9.0029356 1.7918018z"/>
    </g>
    <g fill-rule="evenodd" transform="matrix(1.43772 0 0 1.36201 58.134731 -198.10272)">
      <path fill="#ebeb00" stroke="#000" d="M9.9600164 175.37384c-3.3797385 0-6.5027442-1.80309-8.1926166-4.73002-1.68986641-2.92694-1.68986641-6.53307 0-9.46002L91.807367 5.230002C93.497242 2.303066 96.620246.5 99.999987.5c3.379733 0 6.502743 1.803066 8.192613 4.730002L198.23257 161.1838c1.68987 2.92695 1.68987 6.53308 0 9.46002-1.68987 2.92693-4.81288 4.73002-8.19261 4.73002H9.9600164z"/>
      <path fill="#d40000" d="M99.999991 2.999422c-2.490587 0-4.78595 1.311841-6.03125 3.46875L3.9374906 162.43692c-1.2452932 2.15692-1.2452877 4.81185 0 6.96875 1.2452964 2.15691 3.5406779 3.46875 6.03125 3.46875H190.03124c2.49056 0 4.78596-1.31185 6.03125-3.46875 1.24529-2.15691 1.2453-4.81184 0-6.96875L106.03124 6.468172c-1.24529-2.156905-3.54067-3.46875-6.031249-3.46875zm0 33L167.46874 152.87442H32.531241l67.46875-116.874998z"/>
      <path d="M113.81249 78.530672c-3.864 0-7 3.136003-7 7 0 3.864 3.136 7 7 7s7-3.136 7-7-3.136-6.999997-7-7zm-31.906249 2.875c-1.830359.0025-3.431578 1.232259-3.90625 3l-3.125 11.5-2.3125-1.84375c-.317412-.25182-.723186-.36453-1.125-.3125-.596314.0765-1.086635.51516-1.25 1.09375-.163367.57858.03178 1.18538.5 1.5625l3.40625 2.71875c-.02156 1.064158.39109 2.118028 1.15625 2.906248.274037.2823.57468.52984.90625.71875l-1.875 1.84375c-.808303.81335-1.258298 1.91584-1.25 3.0625 0 0 .117171 16.67731.125 17.84375l-4.4375 16.96875c-.45359 1.50574-.04135 3.12995 1.0625 4.25 1.103856 1.12004 2.737811 1.55661 4.25 1.125 1.512191-.43162 2.653666-1.65353 3-3.1875l4.5625-17.46875c.101593-.36644.154135-.74474.15625-1.125 0 0-.05673-8.30079-.09375-13.3125l10.25 12.5625-8.625 16.65625c-1.087311 2.11422-.270465 4.72518 1.84375 5.8125 2.114215 1.08731 4.725189.23922 5.8125-1.875l9.906249-19.1875c.78086-1.5228.58451-3.36367-.5-4.6875l-1.812499-2.21875c.165396-.22571.320025-.45652.4375-.71875l.03125-.0312 19.187499 15.34375c-2.2297.31993-4.03562 2.09236-4.625 4.4375-.17747-.0256-.3479-.0312-.53125-.0312-2.20421 0-4.03005 1.89705-4.34375 4.375-.25054-.0216-.49359-.0312-.75-.0312-3.41031 0-6.32969 1.95565-7.625 4.75h51.84375c-1.00964-2.8801-3.50209-4.9375-6.4375-4.9375-.19537 0-.37121.0135-.5625.0312-.47511-1.18657-1.45756-2-2.59375-2-.0531 0-.1038.0277-.15625.0312.0584-.36268.0937-.74119.0937-1.125 0-3.15524-2.07571-5.6875-4.625-5.6875-.79666 0-1.53313.24736-2.1875.6875-.62702-3.53861-3.72984-6.24999-7.5-6.25-3.06898 0-5.71686 1.79955-6.9375 4.375l-20.8125-16.6875 9.4375-17.562498c.72078-1.32216.64856-2.93505-.1875-4.1875l-7.68745-11.40625c-.75728-1.119731-2.023248-1.787879-3.374999-1.78125h-16.71875zm3.09375 8.09375h4.46875l-6.125 6.09375 1.65625-6.09375zm12.9375 14.437498-3.90625 7.28125-4.5-3.59375 8.40625-3.6875z"/>
    </g>
    <g stroke="#000" font-size="12" transform="matrix(1.2615 0 0 1.25356 262.47667 -173.01135)">
      <path fill="none" stroke="none" d="M128 128H0V0h128v128z"/>
      <linearGradient id="h" x1="-.1577" x2="65.0933" y1="-19.3423" y2="45.908699" gradientUnits="userSpaceOnUse" spreadMethod="pad">
        <stop offset="0"/>
        <stop offset="1" stop-color="#616161"/>
      </linearGradient>
      <path fill="url(#h)" stroke="none" d="M26.437 23.054c-.45.512-.691 1.177-.691 1.893 0 .076.002.152.008.229.026.422.178.826.393 1.203-.025.206-.138.875-.808 2.168-.001.001-.417.756-.417.756-.953 1.646-2.45 3.657-4.417 5.939-1.402 1.16-4.11 2.806-5.75 2.496-.901-.173-1.843.103-2.515.738L4.5 45.8c-.886.836-1.148 2.148-.651 3.263.643 1.449 6.548 14.248 15.254 16.214 4.738 1.069 7.895-3.869 11.236-9.097 2.652-4.152 5.946-9.309 9.137-9.604 1.583-.147 3.453.918 5.561 3.166 0 0-.02-.05-.021-.054.195.24.441.523.816.941l4.508 5.089.168-5.017c.171-5.134 4.865-7.664 9.834-10.342l1.169-.633.047-.03c1.788-1.117 3.83-1.318 6.622-.653l6.353 1.515-4.415-4.812c-1.514-1.65-3.464-4.442-3.979-6.881-.234-1.116-.162-2.041.222-2.827 1.098-2.247 6.795-7.131 35.903-3.94 1.316.145 2.557-.622 3.013-1.865.122-.325.182-.662.182-.996 0-.918-.444-1.812-1.238-2.365 0 0-5.496-3.81-5.804-4.023.01-.129.017-.229.017-.229l-1.075-1.697c-.003-.002-3.509-2.663-3.509-2.663s.411.463.458.515c-.043-.043-.912-.926-.912-.926s-.178-.095-.311-.166c-.149-.113-.368-.279-.368-.279.004.002-.922-.326-1.385-.49.195.046.39.093.39.093C85.669 4.166 54.073-8.41 26.437 23.054zm.013 3.801s-.066-.128-.13-.254c.139.198.259.409.446.57l-.316-.316z"/>
      <linearGradient id="i" x1="28.318399" x2="60.861401" y1="9.1415997" y2="41.684601" gradientUnits="userSpaceOnUse" spreadMethod="pad">
        <stop offset="0"/>
        <stop offset="1" stop-color="#616161"/>
      </linearGradient>
      <path fill="url(#i)" stroke="none" d="M60.5 38c2.595-1.622 5.401-1.557 8.146-.902-.705-.769-3.699-4.207-4.462-7.819-.293-1.396-.254-2.816.381-4.118 1.948-3.986 10.107-8.1 37.918-5.051.398.044.779-.189.918-.566.142-.377.009-.8-.323-1.03l-5.963-4.133c-.126-.088-.275-.141-.43-.154-.173-.014-17.403-1.36-30.883 2.571-.263-.122-.561-.309-.604-.499v-.002c-.033-.155.148-.51.589-.967 2.094-.331 15.676-2.34 29.761-1.237.388.031.754-.2.892-.564.061-.161.072-.333.038-.494-.043-.203-.156-.388-.329-.519 0 0-3.092-2.344-3.513-2.665-.068-.076-.085-.185-.179-.235 0 0-.346-.185-.454-.243-.086-.067-.491-.373-.491-.373-.145-.11-.319-.172-.5-.178 0 0-.071-.003-.14-.005-6.19-2.905-36.333-14.725-62.933 15.557-.155.176-.207.427-.19.661.015.234.149.472.326.625l-.068-.06c.039.048.079.136.107.267.104.497.023 1.624-1 3.601-.011.021-.44.801-.44.801-1.061 1.833-2.67 3.995-4.775 6.425-.317.268-4.351 3.608-7.515 3.011-.277-.053-.563.03-.768.225l-7.741 7.324c-.271.256-.351.655-.199.995.241.542 5.98 13.297 13.869 15.078 3.371.761 6.033-3.407 9.116-8.231 3.031-4.746 6.467-10.125 10.632-10.51 2.259-.21 4.616 1.03 7.204 3.789 0 .001.824.919.824.919l1.189 1.342c.225-6.74 6.588-9.69 11.99-12.636m5.037-21.136c-.023.007-.051.011-.074.019.023-.008.051-.012.074-.019z"/>
      <path fill="#633" stroke="none" d="m59.44 36.304.103-.06-1.097.594c-5.206 2.806-11.686 6.298-11.934 13.729l-.026.796 3.618 4.084c-.036-.042.345.333.345.333.203.167 21.391 17.801 31.136 40.929l.023.057.027.056c.41.826 10.123 20.316 17.201 26.765l.004-.004c.013.018.122.173.122.173l.071.082c1.136 1.288 2.777 2.035 4.75 2.159 3.867.244 8.761-1.889 13.091-5.706 4.336-3.822 7.069-8.406 7.313-12.263.012-.183.018-.364.018-.543 0-.547-.055-1.078-.162-1.583-.232-1.104-.708-2.071-1.415-2.867l-.064-.073s-.182-.168-.296-.273c-3.839-5.721-20.79-24.505-28.539-31.202-.306-.465-23.153-35.192-23.153-35.192-.007-.01-.309-.391-.309-.391-.033-.035-.563-.603-.563-.603l-.593-.146c-3.814-.912-6.977-.535-9.671 1.149zm42.061 84.3s.068.092.104.14c-.03.021-.405.283-.608.425.154-.174.504-.565.504-.565z"/>
      <path fill="#633" stroke="none" d="M122.086 106.318c-.159-.758-.479-1.42-.955-1.957 0 0-.229-.216-.378-.351-3.508-5.391-20.948-24.712-28.551-31.206-.126-.195-23.299-35.413-23.299-35.413-.031-.047-.067-.091-.104-.131-.006-.005-.063-.066-.153-.164-2.744-.654-5.55-.72-8.146.902-5.402 2.946-11.765 5.896-11.99 12.634l3.089 3.487c.033.039.07.075.109.106.216.178 21.724 17.986 31.717 41.705.43.866 10.037 20.054 16.756 26.175-.048-.042-.1-.232-.137-.286l.488.693c2.646 3.003 9.242 1.366 15.018-3.725 3.887-3.427 6.432-7.597 6.64-10.889.037-.559 0-1.088-.104-1.58z"/>
      <path stroke="none" d="M120.471 104.943c-.118-.134-.252-.25-.391-.36-3.364-5.253-20.94-24.738-28.547-31.199L68.168 37.875s-24.464-25.093 34.409-18.639l-5.964-4.134s-17.375-1.428-30.897 2.623c0 0-2.884-.89-.378-3.215 0 0 14.745-2.512 30.278-1.295l-3.756-2.847c.057.003.106.006.162.011 0 0-.173-.099-.494-.264l-.548-.416-.313-.01C84.102 6.567 54.796-4.871 28.6 24.954c0 0 1.329.989-.705 4.917-.003.008-.008.015-.011.022-.135.259-.284.531-.449.815h.001c-.982 1.695-2.524 3.857-4.915 6.61 0 0-4.557 3.956-8.301 3.249l-7.741 7.324s5.711 12.873 13.259 14.576c7.4 1.67 13.294-29.738 27.4-14.695.281.299.564.611.852.949l.07-.06 4.205 4.886S74.039 71.382 84.236 95.59c0 0 9.864 19.787 16.537 25.867 0 0 .017-.026.04-.065.107.192.233.374.381.542 2.284 2.592 8.452.889 13.775-3.804 5.324-4.69 7.789-10.596 5.502-13.187z"/>
      <linearGradient id="j" x1="115.5293" x2="75.634804" y1="22.0459" y2="22.046499" gradientTransform="rotate(-11.911 63.5669959 87.31685763)" gradientUnits="userSpaceOnUse" spreadMethod="pad">
        <stop offset="0" stop-color="#828282"/>
        <stop offset="1" stop-color="#616161"/>
      </linearGradient>
      <path fill="url(#j)" stroke="none" d="M102.304 19.181S87.78 5.171 64.659 14.316l-2.89 6.001 1.544 1.471 8.191-4.311 4.193-.885 5.519.072s4.008-.172 4.377-.025c.366.147 5.909.326 5.909.326l3.214.333s1.32.396 1.688.542c.368.147 1.902.498 1.902.498l2.095.344 1.903.499z"/>
      <linearGradient id="k" x1="95.908203" x2="96.787498" y1="22.086399" y2="14.1722" gradientTransform="rotate(-11.911 63.5669959 87.31685763)" gradientUnits="userSpaceOnUse" spreadMethod="pad">
        <stop offset="0" stop-color="#919697"/>
        <stop offset=".1441" stop-color="#8c9192"/>
        <stop offset=".31" stop-color="#7f8384"/>
        <stop offset=".4867" stop-color="#696c6d"/>
        <stop offset=".67089999" stop-color="#4a4c4d"/>
        <stop offset=".85900003" stop-color="#222424"/>
        <stop offset="1"/>
      </linearGradient>
      <path fill="url(#k)" stroke="none" d="M102.304 19.181S87.78 5.171 64.659 14.316l-2.89 6.001 1.544 1.471 8.191-4.311 4.193-.885 5.519.072s4.008-.172 4.377-.025c.366.147 5.909.326 5.909.326l3.214.333s1.32.396 1.688.542c.368.147 1.902.498 1.902.498l2.095.344 1.903.499z"/>
      <linearGradient id="l" x1="86.186501" x2="20.831499" y1="25.2344" y2="25.2334" gradientTransform="rotate(-11.911 63.5669959 87.31685763)" gradientUnits="userSpaceOnUse" spreadMethod="pad">
        <stop offset="0" stop-color="#fff"/>
        <stop offset="1"/>
      </linearGradient>
      <path fill="url(#l)" stroke="none" d="m59.879 31.237 8.289 6.638s-24.464-25.093 34.409-18.639l-5.964-4.134s-17.375-1.428-30.897 2.623c0 0-2.884-.89-.378-3.215 0 0 14.745-2.512 30.278-1.295L90.98 9.699l-26.852-.925-11.954 5.816-.842 7.367 4.214 7.198 4.333 2.082z"/>
      <linearGradient id="m" x1="129.3555" x2="13.1277" y1="24.320299" y2="26.443399" gradientTransform="rotate(-11.911 63.5669959 87.31685763)" gradientUnits="userSpaceOnUse" spreadMethod="pad">
        <stop offset="0" stop-color="#fff"/>
        <stop offset="1"/>
      </linearGradient>
      <path fill="url(#m)" stroke="none" d="m59.879 31.237 8.289 6.638s-24.464-25.093 34.409-18.639l-5.964-4.134s-17.375-1.428-30.897 2.623c0 0-2.884-.89-.378-3.215 0 0 14.745-2.512 30.278-1.295L90.98 9.699l-26.852-.925-11.954 5.816-.842 7.367 4.214 7.198 4.333 2.082z"/>
      <linearGradient id="n" x1="15.8457" x2="63.027802" y1="37.566399" y2="37.566399" gradientTransform="rotate(-11.911 63.5669959 87.31685763)" gradientUnits="userSpaceOnUse" spreadMethod="pad">
        <stop offset="0" stop-color="#fff"/>
        <stop offset=".25839999" stop-color="#ccc"/>
        <stop offset="1" stop-color="#616161"/>
      </linearGradient>
      <path fill="url(#n)" stroke="none" d="M28.956 27.023c-.311 1.765-1.75 4.902-6.435 10.296 0 0-4.557 3.956-8.301 3.249l-7.741 7.324s5.711 12.873 13.259 14.576c7.547 1.703 13.528-31.009 28.251-13.747l5.681-5.713c-4.92-8.606-13.849-14.623-24.714-15.985z"/>
      <linearGradient id="o" x1="43.688499" x2="62.5327" y1="38.276402" y2="38.276402" gradientTransform="rotate(-11.911 63.5669959 87.31685763)" gradientUnits="userSpaceOnUse" spreadMethod="pad">
        <stop offset="0" stop-color="#b2b2b2"/>
        <stop offset="1" stop-color="#616161"/>
      </linearGradient>
      <path fill="url(#o)" stroke="none" d="M52.899 41.747c-.67-1.051-1.4-2.06-2.19-3.021l-8.444-4.374-9.933 1.197s4.33 3.238 5.689 8.384c2.847-.828 6.105.259 9.969 4.788l4.111-4.135.798-2.839z"/>
      <linearGradient id="p" x1="18.331499" x2="63.027802" y1="44.888699" y2="44.888699" gradientTransform="rotate(-11.911 63.5669959 87.31685763)" gradientUnits="userSpaceOnUse" spreadMethod="pad">
        <stop offset="0" stop-color="#8a9396"/>
        <stop offset="1" stop-color="#616161"/>
      </linearGradient>
      <path fill="url(#p)" stroke="none" d="M49.738 37.606c.525.754 1.028 1.524 1.485 2.324l-5.679 5.713C30.82 28.38 24.839 61.092 17.292 59.388c-2.523-.569-4.839-2.389-6.808-4.557 2.356 3.344 5.588 6.809 9.255 7.637 7.547 1.703 13.528-31.009 28.251-13.747l5.681-5.713c-1.111-1.943-2.436-3.746-3.933-5.402z" opacity=".3"/>
      <g opacity=".3">
        <linearGradient id="q" x1="29.915501" x2="58.932499" y1="37.8955" y2="37.8955" gradientTransform="rotate(-11.911 63.5669959 87.31685763)" gradientUnits="userSpaceOnUse" spreadMethod="pad">
          <stop offset="0" stop-color="#b2b2b2"/>
          <stop offset="1" stop-color="#616161"/>
        </linearGradient>
        <path fill="url(#q)" stroke="none" d="M34.443 28.156c.203.059.406.115.606.176-.199-.061-.403-.117-.606-.176m-1.817-.474c.216.051.43.103.645.156-.214-.053-.429-.106-.645-.156m-1.822-.375c.195.035.385.075.577.113-.192-.038-.382-.079-.577-.113M6.497 47.93c-.01-.021-.018-.039-.018-.039l.018.039m43.922-9.559c.001.002.003.004.006.007.733.987 1.408 2.019 2.022 3.092l-5.68 5.712c-14.725-17.263-20.704 15.45-28.253 13.747-2.79-.629-5.329-2.787-7.421-5.256-.176-.235-.348-.472-.517-.707 2.349 3.302 5.542 6.685 9.161 7.502 7.547 1.703 13.528-31.009 28.251-13.747l5.681-5.713c-.94-1.646-2.029-3.195-3.25-4.637m-8.88-7.271c.208.116.418.232.625.353-.207-.121-.415-.237-.625-.353m2.099 1.265c-.172-.113-.35-.219-.526-.33.177.111.354.216.526.33m-7.224-3.578c.115.04.231.076.344.117-.113-.042-.23-.077-.344-.117m1.964.76c.186.08.366.165.549.246-.183-.081-.363-.167-.549-.246m1.598.734c.213.104.424.212.634.32-.21-.108-.421-.216-.634-.32M9.607 53.537c-1.208-1.862-2.111-3.567-2.629-4.605.516 1.037 1.419 2.74 2.629 4.605m37.304-18.692c-.196-.169-.393-.339-.594-.504.201.165.397.335.594.504m-1.396-1.135c-.18-.138-.355-.28-.539-.413.183.134.359.276.539.413m2.668 2.287c-.19-.182-.384-.36-.579-.539.195.179.389.357.579.539M10.56 54.94c-.162-.23-.321-.459-.476-.687.154.227.312.457.476.687M49.376 37.2c-.171-.182-.348-.356-.522-.534.174.178.352.353.522.534M6.558 48.065c-.021-.047-.036-.08-.049-.108.012.027.03.063.049.108m.232.486c-.044-.093-.086-.177-.121-.252.035.075.075.159.121.252m3.277 5.678c-.156-.233-.31-.462-.458-.692.148.23.302.459.458.692m-3.412-5.958c-.034-.075-.065-.139-.089-.192.023.053.055.117.089.192m.315.648c-.058-.12-.113-.229-.162-.33.049.101.104.211.162.33z"/>
      </g>
      <path stroke="none" d="m52.355 15.45 11.953-5.815 26.854.925 3.403 2.58c.35.025.699.048 1.051.075L90.98 9.699l-26.852-.925-11.954 5.816-.842 7.367.233.399.79-6.906zm14.236 21.162 1.577 1.263s-3.651-3.749-4.736-7.975c.425 2.566 1.925 5.038 3.159 6.712z" opacity=".2"/>
      <linearGradient id="r" x1="74.902298" x2="88.311501" y1="86.377899" y2="78.537804" gradientTransform="rotate(-11.911 63.5669959 87.31685763)" gradientUnits="userSpaceOnUse" spreadMethod="pad">
        <stop offset="0" stop-color="#c46701"/>
        <stop offset="1" stop-color="#ff9200"/>
      </linearGradient>
      <path fill="url(#r)" stroke="none" d="m47.902 48.478 4.363 5.07s21.774 17.835 31.971 42.043c0 0 9.864 19.787 16.537 25.867 0 0 8.75-15.324 19.785-15.557 1.721-.361-20.268-25.078-29.024-32.518L68.168 37.875l-3.716-3.409-2.836.037L46.978 45.34l.938 1.6-.014 1.538z"/>
      <path fill="#8f5102" stroke="none" d="m47.552 45.219-.125-.212-.45.333.565.965.01-1.086m52.859 74.519c-6.675-6.084-16.538-25.868-16.538-25.868-10.197-24.208-31.97-42.043-31.97-42.043l-3.991-4.637-.01 1.287 4.363 5.07S74.039 71.382 84.236 95.59c0 0 9.864 19.787 16.537 25.867 0 0 8.75-15.324 19.785-15.557.26-.053-.029-.672-.726-1.696-10.861.555-19.421 15.534-19.421 15.534z" opacity=".3"/>
      <path stroke="none" d="M91.533 73.384 68.168 37.875l-2.582-2.368 24.045 37.38c8.758 7.439 30.746 32.155 29.025 32.518-9.433.198-17.19 11.417-19.247 14.673.466.512.923.978 1.363 1.381 0 0 8.75-15.324 19.785-15.557 1.721-.362-20.267-25.079-29.024-32.518z" opacity=".2"/>
      <linearGradient id="s" x1="37.692402" x2="32.710499" y1="35.555698" y2="24.4193" gradientTransform="rotate(-11.911 63.5669959 87.31685763)" gradientUnits="userSpaceOnUse" spreadMethod="pad">
        <stop offset="0" stop-color="#ccc"/>
        <stop offset="1" stop-color="#616161"/>
      </linearGradient>
      <path fill="url(#s)" stroke="none" d="M13.823 42.448c3.893.676 8.676-3.327 8.676-3.327 4.927-5.445 6.452-8.6 6.793-10.372 9.554 1.072 17.626 5.497 22.95 12.017-5.119-7.397-13.395-12.503-23.286-13.743-.311 1.765-1.75 4.902-6.435 10.296 0 0-4.557 3.956-8.301 3.249l-7.741 7.324s.145.322.414.87l6.93-6.314z"/>
      <linearGradient id="t" x1="20.580601" x2="31.4247" y1="35.917" y2="56.726002" gradientTransform="rotate(-11.911 63.5669959 87.31685763)" gradientUnits="userSpaceOnUse" spreadMethod="pad">
        <stop offset="0" stop-color="#cecedb"/>
        <stop offset="1" stop-color="#919697"/>
      </linearGradient>
      <path fill="url(#t)" stroke="none" d="M26.99 56.065c-7.567-6.61-11.197-11.804-12.926-15.351l-7.585 7.177s5.711 12.873 13.259 14.576c2.464.557 4.762-2.557 7.252-6.402z"/>
      <path fill="#616161" stroke="none" d="m14.064 40.715-1.089 1.031c1.972 3.449 5.568 8.104 12.113 13.822-2.311 3.569-4.457 6.504-6.726 6.46.452.185.911.333 1.376.439 2.464.556 4.762-2.558 7.251-6.402-7.566-6.609-11.196-11.804-12.925-15.35z" opacity=".5"/>
      <linearGradient id="u" x1="14.2798" x2="29.0812" y1="32.663601" y2="47.465" gradientTransform="rotate(-11.911 63.5669959 87.31685763)" gradientUnits="userSpaceOnUse" spreadMethod="pad">
        <stop offset="0" stop-color="#fff"/>
        <stop offset="1" stop-color="#ccc"/>
      </linearGradient>
      <path fill="url(#u)" stroke="none" d="M7.579 47.607c1.933 3.888 6.54 11.346 11.504 12.466 1.229.278 3.242-2.426 4.58-4.414-4.988-4.501-8.672-8.795-11.042-12.822-1.685 1.595-3.954 3.74-5.042 4.77z"/>
      <path fill="#616161" stroke="none" d="M64.539 32.758C58.18 25.68 46.866 8.247 93.27 11.435l-2.212-1.676c-.05-.021-.105-.042-.156-.063l-26.774-.922-11.954 5.816-.842 7.367 4.214 7.198 4.333 2.082 6.549 5.245.321-.278c-.691-.896-1.52-2.092-2.21-3.446z" opacity=".3"/>
      <path fill="#616161" stroke="none" d="m49.168 49.949 16.546-14.327-1.262-1.157-2.836.037L46.978 45.34l.938 1.6-.013 1.538 1.265 1.471z"/>
      <path fill="#616161" stroke="none" d="m49.668 50.449 16.546-14.327-1.262-1.157-2.836.037L47.478 45.84l.938 1.6-.013 1.538 1.265 1.471z" opacity=".5"/>
      <linearGradient id="v" x1="107.2861" x2="39.8955" y1="26.596701" y2="26.5977" gradientTransform="rotate(-11.911 63.5669959 87.31685763)" gradientUnits="userSpaceOnUse" spreadMethod="pad">
        <stop offset="0" stop-color="#cecedb"/>
        <stop offset="1" stop-color="#919697"/>
      </linearGradient>
      <path fill="url(#v)" stroke="none" d="M47.138 47.772c.281.299.564.611.852.949l16.462-14.255s-32.72-28.744 27.57-24.087c0 0-33.713-19.248-63.423 14.575 0 0 1.515 1.128-1.165 5.754 2.217 2.637 4.69 5.325 5.713 5.867 1.743.922 10.245 4.421 13.991 11.197z"/>
      <linearGradient id="w" x1="71.807602" x2="67.411301" y1="-6.0854001" y2="42.8578" gradientTransform="rotate(-11.911 63.5669959 87.31685763)" gradientUnits="userSpaceOnUse" spreadMethod="pad">
        <stop offset="0" stop-color="#fff"/>
        <stop offset="1" stop-color="#999"/>
      </linearGradient>
      <path fill="url(#w)" stroke="none" d="M30.692 25.298h.001c.226 1.076.024 2.751-1.161 5.146 2.494 2.895 4.028 4.354 4.438 4.577l.763.376c2.719 1.318 9.735 4.764 13.475 10.81 2.077-1.8 11.425-9.894 13.632-11.805-2.32-2.33-6.686-7.263-7.759-12.354-.393-1.862-.344-3.746.408-5.529 2.438-5.782 11.198-8.551 26.643-8.4-11.655-2.962-31.663-3.569-50.44 17.179z"/>
      <path fill="#fff" stroke="none" d="M120.558 105.901c1.569-.33-16.569-20.902-26.419-30.168 5.631 7.103 16.71 21.821 20.21 31.84 1.949-.987 4.032-1.624 6.209-1.672z" opacity=".3"/>
      <path fill="#930" stroke="none" d="M78.978 84.869s-.025.085-.06.203c1.96 3.335 3.772 6.852 5.317 10.519 0 0 9.864 19.787 16.537 25.867 0 0 .534-.932 1.498-2.336-10.511-9.872-23.143-33.551-23.292-34.253z" opacity=".2"/>
      <path fill="#fff" stroke="none" d="M102.229 83.874c5.521 6.515 13.2 16.171 15.813 22.343.822-.184 1.662-.296 2.516-.315 1.194-.251-9.033-12.233-18.329-22.028z" opacity=".5"/>
      <path fill="#fff" stroke="none" d="M65.818 38.446s21.317 30.773 22.972 36.49c0 0 9.887 6.703 13.488 11.759 5.426 7.616 10.887 18.597 10.887 18.597l-3.781 1.245s-2.654-14.716-20.367-30.525l-1.426-.373S68.219 41.31 65.094 39.273l.724-.827z" opacity=".3"/>
      <path fill="#fff" stroke="none" d="M65.818 38.446s20.637 31.815 22.293 37.532c0 0 9.887 6.704 13.488 11.758 5.426 7.617 10.886 18.597 10.886 18.597l-3.78 1.246s-2.654-14.716-20.367-30.524l-1.426-.375S66.18 40.167 65.094 39.273l.724-.827z" opacity=".3"/>
      <path fill="#930" stroke="none" d="M101.633 115.586s-17.52-20.567-21.688-28.975c-1.135-2.287-1.646-2.99-1.792-2.813 2.253 3.709 4.339 7.654 6.082 11.792 0 0 .97 1.945 2.506 4.802 5.311 8.031 12.435 18.209 14.756 18.815.238.063.448.102.631.124.276-.406.591-.857.945-1.343-.393-1.077-1.44-2.402-1.44-2.402z" opacity=".2"/>
      <linearGradient id="x" x1="114.1973" x2="107.7023" y1="102.0508" y2="124.034" gradientUnits="userSpaceOnUse" spreadMethod="pad">
        <stop offset="0" stop-color="#ff6d00"/>
        <stop offset="1" stop-color="#824f26"/>
      </linearGradient>
      <path fill="url(#x)" stroke="none" d="M106.695 108.744c-5.323 4.691-7.786 10.598-5.502 13.19 2.284 2.592 8.452.889 13.775-3.804 5.324-4.69 7.789-10.597 5.502-13.188-2.282-2.592-8.452-.888-13.775 3.802z"/>
      <linearGradient id="y" x1="93.214798" x2="93.214798" y1="26.728001" y2="20.023701" gradientTransform="rotate(-11.911 63.5669959 87.31685763)" gradientUnits="userSpaceOnUse" spreadMethod="pad">
        <stop offset="0" stop-color="#fff"/>
        <stop offset="1" stop-color="#b2b2b2"/>
      </linearGradient>
      <path fill="url(#y)" stroke="none" d="M94.622 17.02s-19.096-1.064-27.275 2.757c-5.975 2.792-4.967 4.59-3.897 5.805 1.585-4.862 9.499-8.875 33.551-6.884l-2.379-1.678z"/>
      <path fill="none" stroke="none" d="M128 128H0V0h128v128z"/>
      <linearGradient id="z" x1="96.575203" x2="64.673401" y1="68.505898" y2="88.094704" gradientUnits="userSpaceOnUse" spreadMethod="pad">
        <stop offset="0" stop-color="#fff"/>
        <stop offset="1" stop-color="#ff7f00"/>
      </linearGradient>
      <path fill="url(#z)" stroke="none" d="M65.818 38.446 89.5 75l28.5 27.5s-13 3.25-18.25 13c0 0-21.75-35.75-25-42.25S53.25 50.5 53.25 50.5l12.568-12.054z"/>
      <path stroke="none" d="m128 11.477-1.621-1.625-3.789-3.789-1.293.655-12.428 6.292.148-.068c-4.504 1.835-4.678 8.021-4.521 10.729L62.286 65.88l5.896 5.899 42.2-42.199c2.559.137 8.895-.002 10.741-4.534l-.068.149L128 11.477z" opacity=".2"/>
      <path stroke="none" d="M77.389 72.631 60.256 55.499l-8.938 3.292.63 2.319c.065.241 1.551 5.94-3.095 9.374-9.78 7.229-41.769 31.877-42.786 45.527-.185 2.473.579 4.639 2.206 6.266l3.515 3.516c1.628 1.625 3.795 2.389 6.265 2.207 13.651-1.02 38.299-33.008 45.529-42.787 3.433-4.646 9.132-3.162 9.372-3.098l2.303.629.842-2.234 2.467-6.701-1.177-1.178z" opacity=".2"/>
      <linearGradient id="A" x1="90.899399" x2="97.649803" y1="34.434601" y2="41.185001" gradientUnits="userSpaceOnUse" spreadMethod="pad">
        <stop offset="0" stop-color="#494949"/>
        <stop offset="1"/>
      </linearGradient>
      <path fill="url(#A)" stroke="none" d="m127 10.477-1.621-1.625-3.789-3.789-1.293.655-12.428 6.292.148-.068c-4.504 1.835-4.678 8.021-4.521 10.729L61.286 64.88l5.896 5.899 42.2-42.199c2.559.137 8.895-.002 10.741-4.534l-.068.149L127 10.477z"/>
      <linearGradient id="B" x1="92.531303" x2="96.1987" y1="36.066399" y2="39.733299" gradientUnits="userSpaceOnUse" spreadMethod="pad">
        <stop offset="0" stop-color="#fff"/>
        <stop offset=".40400001" stop-color="#cacad8"/>
        <stop offset=".63480002" stop-color="#b1b1c5"/>
        <stop offset=".84939998" stop-color="#999ab3"/>
        <stop offset="1" stop-color="#8d8faa"/>
      </linearGradient>
      <path fill="url(#B)" stroke="none" d="m123.963 10.264-2.162-2.162-.6-.6-12.428 6.292c-4.102 1.671-3.242 9.499-3.225 9.653L64.114 64.881l3.068 3.07 41.437-41.436c.143.016 7.98.88 9.652-3.224l6.291-12.428-.599-.599z"/>
      <linearGradient id="C" x1="5.0668998" x2="77.564499" y1="90.75" y2="90.75" gradientUnits="userSpaceOnUse" spreadMethod="pad">
        <stop offset="0" stop-color="#7c0000"/>
        <stop offset="1" stop-color="#633"/>
      </linearGradient>
      <path fill="url(#C)" stroke="none" d="M76.389 71.631 59.256 54.499l-8.938 3.292.63 2.319c.065.241 1.551 5.94-3.095 9.374-9.78 7.229-41.769 31.877-42.786 45.527-.185 2.473.579 4.639 2.206 6.266l3.515 3.516c1.628 1.625 3.795 2.389 6.265 2.207 13.651-1.02 38.299-33.008 45.529-42.787 3.433-4.646 9.132-3.162 9.372-3.098l2.303.629.842-2.234 2.467-6.701-1.177-1.178z"/>
      <linearGradient id="D" x1="7.7178001" x2="74.546898" y1="90.932602" y2="90.932602" gradientUnits="userSpaceOnUse" spreadMethod="pad">
        <stop offset="0" stop-color="#f8310e"/>
        <stop offset="1" stop-color="#a50100"/>
      </linearGradient>
      <path fill="url(#D)" stroke="none" d="m72.652 78.609 1.895-5.139-7.977-7.976-7.977-7.977-5.137 1.893s2.163 7.572-4.056 12.167c-6.219 4.595-50.29 37.854-40.287 47.857l1.082 1.082 1.352 1.352 1.081 1.082c10.004 10.004 43.262-34.068 47.859-40.287 4.595-6.218 12.165-4.054 12.165-4.054z"/>
      <linearGradient id="E" x1="31.987301" x2="43.570801" y1="86.608398" y2="98.191399" gradientTransform="matrix(1.0041 -.0041 -.0041 1.0041 .4338 -.4339)" gradientUnits="userSpaceOnUse" spreadMethod="pad">
        <stop offset="0" stop-color="#fff"/>
        <stop offset="1" stop-color="red"/>
      </linearGradient>
      <path fill="url(#E)" stroke="none" d="M64.151 65.914s-5.086-5.088-6.798-6.799c-.673.25-.834.31-1.589.589.236 2.788-.06 7.441-3.84 11.221-.486.486-1.029.955-1.635 1.404-9.931 7.359-20.332 16.035-28.179 23.881-7.394 7.396-12.52 14.053-12.844 18.184-.098 1.242.317 1.828.689 2.201l3.515 3.514c.372.371.958.787 2.2.691 4.13-.328 10.789-5.453 18.183-12.846 7.848-7.848 16.522-18.25 23.88-28.182.449-.604.92-1.146 1.406-1.633 3.78-3.781 8.433-4.076 11.22-3.84.281-.756.34-.918.59-1.59-1.711-1.707-6.798-6.795-6.798-6.795z"/>
      <linearGradient id="F" x1="106.8184" x2="119.9017" y1="25.247999" y2="12.1647" gradientUnits="userSpaceOnUse" spreadMethod="pad">
        <stop offset="0" stop-color="#fff"/>
        <stop offset="1" stop-color="#b1b1c5"/>
      </linearGradient>
      <path fill="url(#F)" stroke="none" d="M120.693 10.678c-2.516 1.274-10.84 5.487-10.84 5.487l-.098.04c-.158.064-.305.167-.438.3-.988.989-1.316 3.685-1.217 5.825.32.32 1.33 1.33 1.633 1.632 2.141.101 4.836-.227 5.826-1.216.133-.134.234-.279.299-.437l.039-.098s4.215-8.323 5.488-10.84c-.311-.311-.381-.382-.692-.693z"/>
    </g>
  </g>
</svg>